<svg width="24" height="24" viewBox="0 0 24 24" fill="none" xmlns="http://www.w3.org/2000/svg">
<path d="M10.18 17.008C10.3 17.008 10.391 17.004 10.451 16.996C10.5214 16.9818 10.5848 16.944 10.631 16.889C10.691 16.826 10.721 16.735 10.721 16.615L10.717 16.058C10.714 15.703 10.713 15.421 10.713 15.214L10.525 15.247C10.3746 15.2707 10.2222 15.2801 10.07 15.275C9.87876 15.2716 9.68812 15.2526 9.5 15.218C9.30036 15.1808 9.11249 15.0964 8.952 14.972C8.78376 14.8447 8.65821 14.6693 8.592 14.469L8.51 14.28C8.44103 14.1312 8.3544 13.9912 8.252 13.863C8.16006 13.7316 8.03753 13.6245 7.895 13.551L7.838 13.511C7.79875 13.4821 7.76315 13.4485 7.732 13.411C7.70176 13.3769 7.67682 13.3385 7.658 13.297C7.642 13.259 7.655 13.227 7.698 13.203C7.77347 13.1727 7.85488 13.16 7.936 13.166L8.1 13.191C8.21 13.212 8.345 13.278 8.506 13.387C8.666 13.497 8.799 13.638 8.903 13.813C9.029 14.037 9.18 14.208 9.358 14.325C9.51512 14.4358 9.70178 14.4971 9.894 14.501C10.074 14.501 10.23 14.488 10.361 14.461C10.4885 14.4346 10.6124 14.3929 10.73 14.337C10.779 13.972 10.912 13.69 11.13 13.494C10.847 13.466 10.5665 13.4165 10.291 13.346C10.022 13.2719 9.76332 13.1644 9.521 13.026C9.26723 12.8883 9.04298 12.7021 8.861 12.478C8.687 12.259 8.544 11.973 8.431 11.618C8.31318 11.2192 8.25686 10.8048 8.264 10.389C8.264 9.729 8.48 9.166 8.911 8.702C8.709 8.205 8.728 7.648 8.968 7.031C9.127 6.981 9.362 7.018 9.673 7.141C9.984 7.264 10.213 7.369 10.357 7.457C10.502 7.544 10.617 7.617 10.705 7.677C11.2172 7.53476 11.7464 7.46342 12.278 7.465C12.818 7.465 13.343 7.535 13.851 7.678L14.161 7.481C14.375 7.351 14.626 7.23 14.915 7.121C15.205 7.011 15.426 6.981 15.579 7.031C15.825 7.648 15.847 8.205 15.644 8.701C16.076 9.166 16.292 9.728 16.292 10.389C16.292 10.853 16.236 11.264 16.124 11.622C16.012 11.98 15.867 12.266 15.69 12.482C15.505 12.7039 15.2797 12.8888 15.026 13.027C14.7837 13.1654 14.525 13.2729 14.256 13.347C13.9801 13.4173 13.6993 13.4664 13.416 13.494C13.7 13.739 13.842 14.127 13.842 14.657V16.614C13.842 16.707 13.856 16.782 13.883 16.84C13.8957 16.8676 13.9139 16.8924 13.9364 16.9129C13.9589 16.9333 13.9853 16.949 14.014 16.959C14.074 16.98 14.128 16.994 14.174 16.999C14.221 17.005 14.287 17.008 14.374 17.008H10.181H10.18Z" fill="black"/>
<path d="M6 4C5.46957 4 4.96086 4.21071 4.58579 4.58579C4.21071 4.96086 4 5.46957 4 6V18C4 18.5304 4.21071 19.0391 4.58579 19.4142C4.96086 19.7893 5.46957 20 6 20H18C18.5304 20 19.0391 19.7893 19.4142 19.4142C19.7893 19.0391 20 18.5304 20 18V6C20 5.46957 19.7893 4.96086 19.4142 4.58579C19.0391 4.21071 18.5304 4 18 4H6ZM6 2H18C19.0609 2 20.0783 2.42143 20.8284 3.17157C21.5786 3.92172 22 4.93913 22 6V18C22 19.0609 21.5786 20.0783 20.8284 20.8284C20.0783 21.5786 19.0609 22 18 22H6C4.93913 22 3.92172 21.5786 3.17157 20.8284C2.42143 20.0783 2 19.0609 2 18V6C2 4.93913 2.42143 3.92172 3.17157 3.17157C3.92172 2.42143 4.93913 2 6 2V2Z" fill="black"/>
</svg>
