<svg width="33" height="26" viewBox="0 0 33 26" fill="none" xmlns="http://www.w3.org/2000/svg">
<path d="M0.342 21C0.222 21 0.162 20.94 0.162 20.82V20.424C0.162 20.304 0.222 20.232 0.342 20.208L1.656 19.902C1.824 19.854 1.938 19.8 1.998 19.74C2.07 19.668 2.112 19.524 2.124 19.308L2.826 9.102C2.85 8.886 2.82 8.736 2.736 8.652C2.652 8.556 2.52 8.496 2.34 8.472L1.116 8.292C0.996 8.268 0.936 8.196 0.936 8.076V7.698C0.936 7.578 0.996 7.518 1.116 7.518H6.282C6.402 7.518 6.474 7.53 6.498 7.554C6.522 7.578 6.534 7.65 6.534 7.77V7.878C6.534 8.19 6.558 8.46 6.606 8.688C6.654 8.916 6.738 9.174 6.858 9.462L10.53 18.642L8.982 19.65L12.798 9.516C12.93 9.168 13.014 8.88 13.05 8.652C13.098 8.412 13.122 8.166 13.122 7.914V7.77C13.122 7.65 13.134 7.578 13.158 7.554C13.182 7.53 13.254 7.518 13.374 7.518H18.342C18.462 7.518 18.522 7.578 18.522 7.698V8.094C18.522 8.202 18.462 8.268 18.342 8.292L17.226 8.454C17.022 8.49 16.884 8.562 16.812 8.67C16.74 8.766 16.71 8.904 16.722 9.084L17.766 19.362C17.79 19.578 17.832 19.722 17.892 19.794C17.964 19.854 18.078 19.908 18.234 19.956L19.494 20.226C19.602 20.25 19.656 20.322 19.656 20.442V20.82C19.656 20.94 19.596 21 19.476 21H13.05C12.942 21 12.888 20.94 12.888 20.82V20.424C12.888 20.304 12.948 20.238 13.068 20.226L14.31 19.956C14.526 19.896 14.652 19.836 14.688 19.776C14.736 19.704 14.754 19.578 14.742 19.398L13.68 8.868L14.886 8.544L10.062 20.838C10.026 20.946 9.948 21 9.828 21H8.802C8.694 21 8.61 20.946 8.55 20.838L3.258 8.544L4.536 8.256L3.816 19.344C3.804 19.512 3.822 19.638 3.87 19.722C3.93 19.794 4.062 19.854 4.266 19.902L5.508 20.208C5.616 20.244 5.67 20.322 5.67 20.442V20.82C5.67 20.94 5.61 21 5.49 21H0.342ZM24.7961 21V7.518H27.8201V21H24.7961ZM31.9241 7.338C32.0921 7.302 32.2181 7.296 32.3021 7.32C32.3861 7.344 32.4401 7.428 32.4641 7.572C32.5001 7.704 32.5241 7.926 32.5361 8.238L32.6261 11.262C32.6261 11.37 32.5661 11.43 32.4461 11.442L31.9241 11.514C31.8161 11.538 31.7381 11.49 31.6901 11.37L30.9341 9.444C30.8381 9.252 30.7301 9.12 30.6101 9.048C30.5021 8.976 30.3581 8.94 30.1781 8.94H22.4921C22.2761 8.94 22.1141 8.982 22.0061 9.066C21.8981 9.15 21.8081 9.276 21.7361 9.444L20.9441 11.37C20.9081 11.49 20.8241 11.538 20.6921 11.514L20.1881 11.442C20.0681 11.418 20.0081 11.352 20.0081 11.244L20.0981 7.842C20.1101 7.662 20.1341 7.53 20.1701 7.446C20.2061 7.362 20.2961 7.32 20.4401 7.32C20.5841 7.32 20.8061 7.344 21.1061 7.392L21.5741 7.446C22.0541 7.458 22.5221 7.47 22.9781 7.482C23.4341 7.494 23.9261 7.506 24.4541 7.518C24.9821 7.518 25.6061 7.518 26.3261 7.518C27.0341 7.518 27.6581 7.518 28.1981 7.518C28.7501 7.506 29.2541 7.494 29.7101 7.482C30.1661 7.47 30.6161 7.458 31.0601 7.446L31.9241 7.338ZM23.0861 21C22.9661 21 22.9061 20.94 22.9061 20.82V20.424C22.9061 20.316 22.9661 20.244 23.0861 20.208L24.3461 19.866C24.5381 19.794 24.6581 19.722 24.7061 19.65C24.7661 19.578 24.7961 19.452 24.7961 19.272V17.274H27.8201V19.236C27.8201 19.452 27.8501 19.596 27.9101 19.668C27.9821 19.74 28.0961 19.8 28.2521 19.848L29.6021 20.208C29.7101 20.256 29.7641 20.334 29.7641 20.442V20.82C29.7641 20.94 29.7041 21 29.5841 21H23.0861Z" fill="darkgrey"/>
<rect y="13" width="33" height="4" fill="#EBF5FF"/>
<path d="M4.888 16C4.864 16 4.852 15.988 4.852 15.964V15.928C4.852 15.904 4.864 15.8907 4.888 15.888L5.132 15.856C5.16667 15.848 5.18667 15.8387 5.192 15.828C5.2 15.8173 5.204 15.796 5.204 15.764V14.684C5.204 14.5427 5.17333 14.436 5.112 14.364C5.05067 14.292 4.96 14.256 4.84 14.256C4.59733 14.256 4.35867 14.384 4.124 14.64L4.092 14.544C4.16133 14.44 4.24267 14.348 4.336 14.268C4.432 14.188 4.53333 14.1253 4.64 14.08C4.74933 14.0347 4.856 14.012 4.96 14.012C5.136 14.012 5.26933 14.0667 5.36 14.176C5.45333 14.2827 5.5 14.44 5.5 14.648V15.772C5.5 15.8013 5.504 15.8213 5.512 15.832C5.52267 15.84 5.54533 15.8467 5.58 15.852L5.864 15.892C5.88533 15.8947 5.896 15.908 5.896 15.932V15.968C5.896 15.9893 5.884 16 5.86 16H4.888ZM2.24 16C2.21867 16 2.208 15.988 2.208 15.964V15.928C2.208 15.904 2.22 15.8907 2.244 15.888L2.44 15.856C2.472 15.848 2.492 15.8387 2.5 15.828C2.508 15.8173 2.512 15.796 2.512 15.764V14.72H2.808V15.772C2.808 15.8013 2.812 15.8213 2.82 15.832C2.83067 15.84 2.85333 15.848 2.888 15.856L3.124 15.888C3.14533 15.896 3.156 15.9107 3.156 15.932V15.968C3.156 15.9893 3.14533 16 3.124 16H2.24ZM3.548 16C3.52667 16 3.516 15.988 3.516 15.964V15.928C3.516 15.904 3.528 15.8907 3.552 15.888L3.776 15.856C3.808 15.848 3.82667 15.8387 3.832 15.828C3.84 15.8173 3.844 15.796 3.844 15.764V14.684C3.844 14.5427 3.81333 14.436 3.752 14.364C3.69333 14.292 3.604 14.256 3.484 14.256C3.244 14.256 3.004 14.384 2.764 14.64L2.732 14.544C2.84133 14.384 2.97467 14.256 3.132 14.16C3.28933 14.0613 3.44667 14.012 3.604 14.012C3.78267 14.012 3.916 14.0667 4.004 14.176C4.09467 14.2827 4.14 14.44 4.14 14.648V15.772C4.14 15.8013 4.144 15.8213 4.152 15.832C4.16267 15.84 4.18533 15.848 4.22 15.856L4.44 15.888C4.46133 15.896 4.472 15.9107 4.472 15.932V15.968C4.472 15.9893 4.46 16 4.436 16H3.548ZM2.512 14.72V14.14L2.584 14.256L2.212 14.204C2.19067 14.2013 2.18 14.188 2.18 14.164V14.124C2.18 14.1053 2.192 14.092 2.216 14.084L2.696 14.016C2.73067 14.0107 2.75467 14.012 2.768 14.02C2.784 14.028 2.792 14.0467 2.792 14.076V14.46L2.808 14.528V14.72H2.512ZM7.11694 16.028C6.94094 16.028 6.78227 15.988 6.64094 15.908C6.50227 15.8253 6.3916 15.708 6.30894 15.556C6.22894 15.404 6.18894 15.2227 6.18894 15.012C6.18894 14.7987 6.23027 14.6187 6.31294 14.472C6.39827 14.3227 6.5116 14.2093 6.65294 14.132C6.79427 14.052 6.95294 14.012 7.12894 14.012C7.27827 14.012 7.41427 14.048 7.53694 14.12C7.6596 14.1893 7.75694 14.2893 7.82894 14.42C7.90094 14.548 7.93694 14.7 7.93694 14.876C7.93694 14.8867 7.93694 14.8987 7.93694 14.912C7.93694 14.9253 7.9356 14.9373 7.93294 14.948C7.9276 14.9693 7.91427 14.98 7.89294 14.98H6.43294V14.82H7.74094L7.66094 14.904C7.66094 14.8933 7.66094 14.8827 7.66094 14.872C7.66094 14.8613 7.66094 14.8507 7.66094 14.84C7.66094 14.7173 7.63694 14.608 7.58894 14.512C7.54094 14.416 7.47427 14.3413 7.38894 14.288C7.30627 14.232 7.2116 14.204 7.10494 14.204C6.91027 14.204 6.7596 14.2733 6.65294 14.412C6.54627 14.548 6.49294 14.7427 6.49294 14.996C6.49294 15.1533 6.52227 15.2947 6.58094 15.42C6.64227 15.5453 6.72494 15.644 6.82894 15.716C6.93294 15.788 7.0516 15.824 7.18494 15.824C7.40094 15.824 7.57827 15.7653 7.71694 15.648C7.7356 15.632 7.75027 15.6333 7.76094 15.652L7.79294 15.696C7.8036 15.7147 7.80227 15.7333 7.78894 15.752C7.70894 15.84 7.61027 15.908 7.49294 15.956C7.3756 16.004 7.25027 16.028 7.11694 16.028ZM9.14509 16.904C8.86776 16.904 8.65709 16.8587 8.51309 16.768C8.36909 16.68 8.29709 16.552 8.29709 16.384C8.29709 16.3173 8.31709 16.2547 8.35709 16.196C8.39976 16.1373 8.45309 16.084 8.51709 16.036C8.58376 15.9907 8.65443 15.956 8.72909 15.932L8.84509 15.968C8.74909 16.0133 8.67709 16.0667 8.62909 16.128C8.58109 16.1893 8.55709 16.256 8.55709 16.328C8.55709 16.4507 8.61176 16.5453 8.72109 16.612C8.83043 16.6787 8.98509 16.712 9.18509 16.712C9.65176 16.712 9.88509 16.5747 9.88509 16.3C9.88509 16.2093 9.85309 16.1387 9.78909 16.088C9.72776 16.04 9.64109 16.016 9.52909 16.016H9.03309C8.85443 16.016 8.71976 15.9853 8.62909 15.924C8.53843 15.86 8.49309 15.7667 8.49309 15.644C8.49309 15.5907 8.50243 15.544 8.52109 15.504C8.54243 15.464 8.58109 15.424 8.63709 15.384C8.69309 15.3413 8.76909 15.2907 8.86509 15.232L8.96109 15.26C8.88109 15.3107 8.82243 15.3613 8.78509 15.412C8.75043 15.46 8.73309 15.512 8.73309 15.568C8.73309 15.6347 8.75709 15.684 8.80509 15.716C8.85576 15.7453 8.93176 15.76 9.03309 15.76H9.59309C9.76909 15.76 9.90376 15.8 9.99709 15.88C10.0904 15.9573 10.1371 16.0693 10.1371 16.216C10.1371 16.3573 10.0971 16.4787 10.0171 16.58C9.93709 16.684 9.82243 16.764 9.67309 16.82C9.52643 16.876 9.35043 16.904 9.14509 16.904ZM9.18509 15.184C9.34776 15.184 9.47309 15.1413 9.56109 15.056C9.65176 14.968 9.69709 14.8467 9.69709 14.692C9.69709 14.5427 9.64776 14.4227 9.54909 14.332C9.45043 14.2387 9.32109 14.192 9.16109 14.192C9.01709 14.192 8.90109 14.2347 8.81309 14.32C8.72776 14.4053 8.68509 14.52 8.68509 14.664C8.68509 14.816 8.73043 14.9413 8.82109 15.04C8.91443 15.136 9.03576 15.184 9.18509 15.184ZM9.52109 14.096C9.65976 14.1413 9.76776 14.216 9.84509 14.32C9.92509 14.424 9.96509 14.5453 9.96509 14.684C9.96509 14.82 9.93309 14.94 9.86909 15.044C9.80509 15.1453 9.71443 15.224 9.59709 15.28C9.47976 15.3333 9.34109 15.36 9.18109 15.36C9.02643 15.36 8.89043 15.332 8.77309 15.276C8.65576 15.22 8.56376 15.1413 8.49709 15.04C8.43309 14.9387 8.40109 14.8213 8.40109 14.688C8.40109 14.552 8.43309 14.4333 8.49709 14.332C8.56376 14.2307 8.65576 14.152 8.77309 14.096C8.89043 14.04 9.02776 14.012 9.18509 14.012C9.28643 14.012 9.39443 14.0187 9.50909 14.032C9.62643 14.0453 9.75576 14.06 9.89709 14.076L9.69309 14.072L10.1211 13.952C10.1424 13.9493 10.1598 13.9573 10.1731 13.976C10.1864 14.0027 10.1984 14.0347 10.2091 14.072C10.2224 14.1093 10.2304 14.1467 10.2331 14.184C10.2358 14.2053 10.2264 14.216 10.2051 14.216H9.51709L9.52109 14.096ZM11.0367 16.028C10.8767 16.028 10.746 15.9827 10.6447 15.892C10.546 15.8013 10.4967 15.6827 10.4967 15.536C10.4967 15.3733 10.5554 15.248 10.6727 15.16C10.79 15.0693 10.9727 15.0107 11.2207 14.984L11.8047 14.916L11.8007 15.072L11.2727 15.14C11.0967 15.164 10.9714 15.204 10.8967 15.26C10.822 15.316 10.7847 15.3973 10.7847 15.504C10.7847 15.5973 10.8154 15.672 10.8767 15.728C10.938 15.7813 11.022 15.808 11.1287 15.808C11.238 15.808 11.3367 15.7893 11.4247 15.752C11.5127 15.7147 11.586 15.6733 11.6447 15.628C11.706 15.58 11.7487 15.5387 11.7727 15.504L11.8167 15.556C11.806 15.5987 11.7794 15.6467 11.7367 15.7C11.694 15.7533 11.6367 15.8053 11.5647 15.856C11.4954 15.9067 11.4154 15.948 11.3247 15.98C11.234 16.012 11.138 16.028 11.0367 16.028ZM11.7647 14.68C11.7647 14.5253 11.7247 14.4067 11.6447 14.324C11.5647 14.2387 11.4487 14.196 11.2967 14.196C11.2247 14.196 11.1594 14.204 11.1007 14.22C11.042 14.236 10.9914 14.2653 10.9487 14.308C10.9087 14.3507 10.8807 14.4147 10.8647 14.5L10.8367 14.656C10.8314 14.6773 10.818 14.688 10.7967 14.688H10.7567C10.7327 14.688 10.7194 14.676 10.7167 14.652C10.7007 14.5827 10.686 14.5133 10.6727 14.444C10.6594 14.372 10.6474 14.3013 10.6367 14.232C10.6314 14.2133 10.6394 14.1987 10.6607 14.188C10.7247 14.1533 10.8154 14.116 10.9327 14.076C11.05 14.0333 11.1807 14.012 11.3247 14.012C11.554 14.012 11.734 14.0707 11.8647 14.188C11.9954 14.3027 12.0607 14.4627 12.0607 14.668V15.352H11.7647V14.68ZM12.0607 15.352V15.904L11.9847 15.788L12.3567 15.86C12.378 15.868 12.3887 15.8827 12.3887 15.904V15.944C12.3887 15.9653 12.378 15.9773 12.3567 15.98L12.1407 16C12.0314 16.0107 11.95 16.0133 11.8967 16.008C11.8434 16.0053 11.8087 15.9907 11.7927 15.964C11.7794 15.9373 11.7727 15.8987 11.7727 15.848V15.608L11.7647 15.58V15.352H12.0607ZM14.4207 14.684C14.4207 14.5427 14.386 14.436 14.3167 14.364C14.25 14.292 14.1473 14.256 14.0087 14.256C13.8833 14.256 13.754 14.2893 13.6207 14.356C13.49 14.4227 13.366 14.5173 13.2487 14.64L13.2167 14.544C13.2913 14.44 13.378 14.348 13.4767 14.268C13.578 14.188 13.6847 14.1253 13.7967 14.08C13.9113 14.0347 14.0233 14.012 14.1327 14.012C14.3273 14.012 14.4727 14.0667 14.5687 14.176C14.6673 14.2827 14.7167 14.44 14.7167 14.648V16H14.4207V14.684ZM12.9847 16V14.72H13.2807V16H12.9847ZM12.7167 16C12.6953 16 12.6847 15.988 12.6847 15.964V15.928C12.6847 15.904 12.6967 15.8907 12.7207 15.888L12.9127 15.856C12.9447 15.848 12.9647 15.8387 12.9727 15.828C12.9807 15.8173 12.9847 15.796 12.9847 15.764V15.28H13.2807V15.772C13.2807 15.8013 13.2847 15.8213 13.2927 15.832C13.3033 15.84 13.326 15.8467 13.3607 15.852L13.6447 15.892C13.666 15.8947 13.6767 15.908 13.6767 15.932V15.968C13.6767 15.9893 13.6647 16 13.6407 16H12.7167ZM14.1527 16C14.1313 16 14.1207 15.988 14.1207 15.964V15.928C14.1207 15.904 14.1327 15.8907 14.1567 15.888L14.3527 15.856C14.3847 15.848 14.4033 15.8387 14.4087 15.828C14.4167 15.8173 14.4207 15.796 14.4207 15.764V15.28H14.7167V15.772C14.7167 15.8013 14.7207 15.8213 14.7287 15.832C14.7393 15.84 14.762 15.8467 14.7967 15.852L15.0807 15.892C15.102 15.8947 15.1127 15.908 15.1127 15.932V15.968C15.1127 15.9893 15.1007 16 15.0767 16H14.1527ZM12.9847 14.72V14.14L13.0567 14.256L12.6847 14.204C12.6633 14.2013 12.6527 14.188 12.6527 14.164V14.124C12.6527 14.1053 12.6647 14.092 12.6887 14.084L13.1687 14.016C13.2033 14.0107 13.2273 14.012 13.2407 14.02C13.2567 14.028 13.2647 14.0467 13.2647 14.076V14.46L13.2807 14.528V14.72H12.9847ZM17.1082 16.028C16.9322 16.028 16.7988 15.9787 16.7082 15.88C16.6202 15.7813 16.5762 15.636 16.5762 15.444V14.068L16.5842 14.04V13.66C16.5842 13.6387 16.5948 13.624 16.6162 13.616C16.6375 13.6133 16.6602 13.6107 16.6842 13.608C16.7108 13.6027 16.7375 13.5987 16.7642 13.596C16.7935 13.5933 16.8188 13.592 16.8402 13.592C16.8615 13.592 16.8722 13.604 16.8722 13.628V15.44C16.8722 15.5733 16.9028 15.6707 16.9642 15.732C17.0282 15.7907 17.1308 15.82 17.2722 15.82C17.3175 15.82 17.3642 15.8173 17.4122 15.812C17.4602 15.8067 17.5108 15.796 17.5642 15.78C17.5855 15.7747 17.5975 15.784 17.6002 15.808L17.6042 15.856C17.6068 15.8747 17.5988 15.892 17.5802 15.908C17.5402 15.932 17.4935 15.9533 17.4402 15.972C17.3868 15.988 17.3308 16.0013 17.2722 16.012C17.2162 16.0227 17.1615 16.028 17.1082 16.028ZM16.3082 14.212C16.2895 14.212 16.2815 14.2 16.2842 14.176L16.3002 14.108C16.3028 14.0867 16.3162 14.0747 16.3402 14.072L16.5842 14.04H17.3842L17.6082 14.028C17.6295 14.028 17.6402 14.04 17.6402 14.064C17.6402 14.0827 17.6402 14.1027 17.6402 14.124C17.6402 14.1427 17.6375 14.1613 17.6322 14.18C17.6268 14.2013 17.6135 14.212 17.5922 14.212H16.3082ZM18.9148 16.028C18.7201 16.028 18.5494 15.9867 18.4028 15.904C18.2588 15.8213 18.1468 15.7053 18.0668 15.556C17.9868 15.404 17.9468 15.2267 17.9468 15.024C17.9468 14.816 17.9868 14.6373 18.0668 14.488C18.1468 14.336 18.2588 14.2187 18.4028 14.136C18.5494 14.0533 18.7201 14.012 18.9148 14.012C19.1121 14.012 19.2828 14.0533 19.4268 14.136C19.5734 14.2187 19.6854 14.336 19.7628 14.488C19.8428 14.6373 19.8828 14.816 19.8828 15.024C19.8828 15.2267 19.8428 15.404 19.7628 15.556C19.6854 15.708 19.5734 15.8253 19.4268 15.908C19.2828 15.988 19.1121 16.028 18.9148 16.028ZM18.9188 15.828C19.1268 15.828 19.2881 15.7573 19.4028 15.616C19.5174 15.4747 19.5748 15.2773 19.5748 15.024C19.5748 14.8587 19.5468 14.716 19.4908 14.596C19.4348 14.476 19.3574 14.3827 19.2588 14.316C19.1601 14.2467 19.0428 14.212 18.9068 14.212C18.7014 14.212 18.5414 14.2827 18.4268 14.424C18.3148 14.5627 18.2588 14.7587 18.2588 15.012C18.2588 15.26 18.3188 15.4587 18.4388 15.608C18.5588 15.7547 18.7188 15.828 18.9188 15.828ZM20.6253 16V14.72H20.9213V16H20.6253ZM21.7333 14.296C21.7333 14.3173 21.7226 14.328 21.7013 14.328H21.4733C21.4466 14.328 21.4199 14.3307 21.3933 14.336C21.3666 14.3387 21.3399 14.3453 21.3133 14.356C21.2359 14.388 21.1586 14.4333 21.0813 14.492C21.0066 14.5507 20.9413 14.62 20.8853 14.7L20.8693 14.6C20.8906 14.536 20.9253 14.4707 20.9733 14.404C21.0239 14.3347 21.0839 14.2707 21.1533 14.212C21.2226 14.1507 21.2959 14.1027 21.3733 14.068C21.4533 14.0307 21.5319 14.012 21.6093 14.012C21.6919 14.012 21.7333 14.024 21.7333 14.048V14.296ZM20.3573 16C20.3359 16 20.3253 15.988 20.3253 15.964V15.928C20.3253 15.904 20.3373 15.8907 20.3613 15.888L20.5533 15.856C20.5853 15.848 20.6053 15.8387 20.6133 15.828C20.6213 15.8173 20.6253 15.796 20.6253 15.764V15.28H20.9213V15.772C20.9213 15.8013 20.9253 15.8213 20.9333 15.832C20.9439 15.84 20.9666 15.8467 21.0013 15.852L21.2853 15.892C21.3066 15.8947 21.3173 15.908 21.3173 15.932V15.968C21.3173 15.9893 21.3053 16 21.2813 16H20.3573ZM20.6253 14.72V14.14L20.6973 14.256L20.3253 14.204C20.3039 14.2013 20.2933 14.188 20.2933 14.164V14.124C20.2933 14.1053 20.3053 14.092 20.3293 14.084L20.8093 14.016C20.8439 14.0107 20.8679 14.012 20.8813 14.02C20.8973 14.028 20.9053 14.0467 20.9053 14.076V14.46L20.9213 14.528V14.72H20.6253ZM24.7161 16C24.6921 16 24.6801 15.988 24.6801 15.964V15.928C24.6801 15.904 24.6921 15.8907 24.7161 15.888L24.9601 15.856C24.9948 15.848 25.0148 15.8387 25.0201 15.828C25.0281 15.8173 25.0321 15.796 25.0321 15.764V14.684C25.0321 14.5427 25.0015 14.436 24.9401 14.364C24.8788 14.292 24.7881 14.256 24.6681 14.256C24.4255 14.256 24.1868 14.384 23.9521 14.64L23.9201 14.544C23.9895 14.44 24.0708 14.348 24.1641 14.268C24.2601 14.188 24.3615 14.1253 24.4681 14.08C24.5775 14.0347 24.6841 14.012 24.7881 14.012C24.9641 14.012 25.0975 14.0667 25.1881 14.176C25.2815 14.2827 25.3281 14.44 25.3281 14.648V15.772C25.3281 15.8013 25.3321 15.8213 25.3401 15.832C25.3508 15.84 25.3735 15.8467 25.4081 15.852L25.6921 15.892C25.7135 15.8947 25.7241 15.908 25.7241 15.932V15.968C25.7241 15.9893 25.7121 16 25.6881 16H24.7161ZM22.0681 16C22.0468 16 22.0361 15.988 22.0361 15.964V15.928C22.0361 15.904 22.0481 15.8907 22.0721 15.888L22.2681 15.856C22.3001 15.848 22.3201 15.8387 22.3281 15.828C22.3361 15.8173 22.3401 15.796 22.3401 15.764V14.72H22.6361V15.772C22.6361 15.8013 22.6401 15.8213 22.6481 15.832C22.6588 15.84 22.6815 15.848 22.7161 15.856L22.9521 15.888C22.9735 15.896 22.9841 15.9107 22.9841 15.932V15.968C22.9841 15.9893 22.9735 16 22.9521 16H22.0681ZM23.3761 16C23.3548 16 23.3441 15.988 23.3441 15.964V15.928C23.3441 15.904 23.3561 15.8907 23.3801 15.888L23.6041 15.856C23.6361 15.848 23.6548 15.8387 23.6601 15.828C23.6681 15.8173 23.6721 15.796 23.6721 15.764V14.684C23.6721 14.5427 23.6415 14.436 23.5801 14.364C23.5215 14.292 23.4321 14.256 23.3121 14.256C23.0721 14.256 22.8321 14.384 22.5921 14.64L22.5601 14.544C22.6695 14.384 22.8028 14.256 22.9601 14.16C23.1175 14.0613 23.2748 14.012 23.4321 14.012C23.6108 14.012 23.7441 14.0667 23.8321 14.176C23.9228 14.2827 23.9681 14.44 23.9681 14.648V15.772C23.9681 15.8013 23.9721 15.8213 23.9801 15.832C23.9908 15.84 24.0135 15.848 24.0481 15.856L24.2681 15.888C24.2895 15.896 24.3001 15.9107 24.3001 15.932V15.968C24.3001 15.9893 24.2881 16 24.2641 16H23.3761ZM22.3401 14.72V14.14L22.4121 14.256L22.0401 14.204C22.0188 14.2013 22.0081 14.188 22.0081 14.164V14.124C22.0081 14.1053 22.0201 14.092 22.0441 14.084L22.5241 14.016C22.5588 14.0107 22.5828 14.012 22.5961 14.02C22.6121 14.028 22.6201 14.0467 22.6201 14.076V14.46L22.6361 14.528V14.72H22.3401ZM26.9451 16.028C26.7691 16.028 26.6104 15.988 26.4691 15.908C26.3304 15.8253 26.2197 15.708 26.1371 15.556C26.0571 15.404 26.0171 15.2227 26.0171 15.012C26.0171 14.7987 26.0584 14.6187 26.1411 14.472C26.2264 14.3227 26.3397 14.2093 26.4811 14.132C26.6224 14.052 26.7811 14.012 26.9571 14.012C27.1064 14.012 27.2424 14.048 27.3651 14.12C27.4877 14.1893 27.5851 14.2893 27.6571 14.42C27.7291 14.548 27.7651 14.7 27.7651 14.876C27.7651 14.8867 27.7651 14.8987 27.7651 14.912C27.7651 14.9253 27.7637 14.9373 27.7611 14.948C27.7557 14.9693 27.7424 14.98 27.7211 14.98H26.2611V14.82H27.5691L27.4891 14.904C27.4891 14.8933 27.4891 14.8827 27.4891 14.872C27.4891 14.8613 27.4891 14.8507 27.4891 14.84C27.4891 14.7173 27.4651 14.608 27.4171 14.512C27.3691 14.416 27.3024 14.3413 27.2171 14.288C27.1344 14.232 27.0397 14.204 26.9331 14.204C26.7384 14.204 26.5877 14.2733 26.4811 14.412C26.3744 14.548 26.3211 14.7427 26.3211 14.996C26.3211 15.1533 26.3504 15.2947 26.4091 15.42C26.4704 15.5453 26.5531 15.644 26.6571 15.716C26.7611 15.788 26.8797 15.824 27.0131 15.824C27.2291 15.824 27.4064 15.7653 27.5451 15.648C27.5637 15.632 27.5784 15.6333 27.5891 15.652L27.6211 15.696C27.6317 15.7147 27.6304 15.7333 27.6171 15.752C27.5371 15.84 27.4384 15.908 27.3211 15.956C27.2037 16.004 27.0784 16.028 26.9451 16.028ZM28.4132 16.848C28.3412 16.848 28.2866 16.832 28.2492 16.8C28.2119 16.7707 28.1932 16.7333 28.1932 16.688C28.1932 16.6613 28.1972 16.6373 28.2052 16.616C28.2132 16.5947 28.2226 16.5747 28.2332 16.556C28.2466 16.5373 28.2626 16.532 28.2812 16.54C28.3106 16.5507 28.3412 16.56 28.3732 16.568C28.4052 16.576 28.4386 16.58 28.4732 16.58C28.5212 16.58 28.5626 16.572 28.5972 16.556C28.6319 16.5427 28.6652 16.5133 28.6972 16.468C28.7319 16.4227 28.7679 16.3573 28.8052 16.272L29.6492 14.344C29.6786 14.272 29.6839 14.224 29.6652 14.2C29.6492 14.176 29.6052 14.1627 29.5332 14.16L29.3452 14.152C29.3239 14.1493 29.3132 14.136 29.3132 14.112V14.072C29.3132 14.0507 29.3252 14.04 29.3492 14.04H30.1812C30.2026 14.04 30.2132 14.052 30.2132 14.076V14.116C30.2132 14.1373 30.2012 14.1493 30.1772 14.152L30.0212 14.168C29.9946 14.1707 29.9719 14.1787 29.9532 14.192C29.9372 14.2053 29.9226 14.2253 29.9092 14.252L28.9732 16.34C28.9172 16.4627 28.8612 16.5613 28.8052 16.636C28.7519 16.7107 28.6932 16.764 28.6292 16.796C28.5652 16.8307 28.4932 16.848 28.4132 16.848ZM28.1132 14.244C28.0999 14.2173 28.0826 14.1987 28.0612 14.188C28.0426 14.1747 28.0186 14.1667 27.9892 14.164L27.8412 14.152C27.8199 14.1493 27.8092 14.136 27.8092 14.112V14.072C27.8092 14.0507 27.8212 14.04 27.8452 14.04H28.8052C28.8266 14.04 28.8372 14.052 28.8372 14.076V14.116C28.8372 14.1373 28.8252 14.1493 28.8012 14.152L28.6052 14.164C28.5306 14.1667 28.4866 14.1813 28.4732 14.208C28.4599 14.2347 28.4706 14.28 28.5052 14.344L29.1692 15.732L29.0012 16.008L28.1132 14.244Z" fill="#003E7B"/>
</svg>
